<?xml version="1.0" encoding="UTF-8"?>
<svg width="15.85mm" height="19.863mm" version="1.1" viewBox="0 0 15.8496 19.862801" xmlns="http://www.w3.org/2000/svg">
 <g transform="translate(-6.5673 -4.9787)">
  <g aria-label="B">
   <path d="m18.708 18.746 0.2286-0.0508 0.0254 0.1524 0.2032-0.1016q-0.1778 0.3556-0.8128 0.7112-0.6096 0.3302-1.397 0.7874-0.7874 0.4318-1.5748 1.0414-0.762 0.6096-1.2446 1.4732l0.0254 0.0508q0.2286-0.0508 0.4318-0.0762 0.2286-0.0254 0.4572-0.0762 0.6858-0.2032 1.4478-0.5842 0.762-0.4064 1.397-0.9652 0.6604-0.5588 1.0922-1.2446 0.4318-0.7112 0.4318-1.4986 0-0.5334-0.381-0.8636-0.3556-0.3302-0.8636-0.4826-0.508-0.1778-1.0922-0.2286-0.5588-0.0762-0.9398-0.0762-0.889 0-1.778 0.2286-0.8636 0.2286-1.6256 0.6858-0.0508 0.0254-0.1016 0.127-0.1524 0.508-0.2032 1.0668t-0.0508 1.0922q0 0.2032 0.0254 0.4064 0.0508 0.1778 0.0508 0.381 0 0.127-0.0254 0.2032t-0.1778 0.0762q-0.1778 0-0.3556-0.0508-0.1524-0.0508-0.3302-0.0762-0.5588-0.381-0.9398-0.8128t-0.381-1.1684q0-1.524 0.3556-2.9718 0.3556-1.4732 0.7112-2.9464 0.127-0.508 0.2286-0.9652 0.127-0.4826 0.3048-0.9652 0.1778-0.4572 0.381-0.889 0.2032-0.4572 0.4064-0.889-0.127-0.1778-0.254-0.3302-0.127-0.1778-0.254-0.3556 0-0.1778 0.1016-0.2032t0.2286-0.0254q0.3048 0 0.6096 0.2286 0.3302 0.2286 0.5842 0.5588 0.2794 0.3048 0.4572 0.6858 0.1778 0.3556 0.1778 0.635v0.4318q0 0.2794-0.0762 0.7112t-0.2032 0.889q-0.1016 0.4572-0.2286 0.889-0.1016 0.4064-0.2032 0.6858 0.1524 0.0508 0.3048 0.0762 0.1778 0.0254 0.3302 0.0254 0.5588 0 1.3462-0.254 0.8128-0.254 1.6256-0.6096 0.8382-0.381 1.5494-0.8128 0.7366-0.4572 1.1684-0.8382 0.4572-0.4064 0.7366-0.9652 0.3048-0.5588 0.3048-1.1684 0-0.508-0.254-0.9398t-0.635-0.762q-0.3048-0.254-0.8128-0.4318-0.4826-0.1778-1.016-0.2794t-1.0668-0.1524q-0.508-0.0508-0.9144-0.0508-1.651 0-3.2512 0.508-0.7366 0.2286-1.651 0.6858-0.889 0.4318-1.6764 1.0414-0.762 0.6096-1.2954 1.3716-0.5334 0.762-0.5334 1.651 0 0.0508 0.0508 0.2032 0.0762 0.1524 0.1778 0.3302 0.1016 0.1524 0.1778 0.3048t0.127 0.2286v0.254q-0.4318-0.0508-0.762-0.3048t-0.5588-0.6096q-0.2286-0.381-0.3556-0.7874-0.127-0.4318-0.127-0.8128 0-0.5588 0.1524-1.0414 0.1778-0.4826 0.4826-0.9652 0.5842-0.9144 1.4986-1.651 0.9398-0.7366 2.0066-1.2446 1.0922-0.5334 2.2606-0.7874 1.1684-0.2794 2.2352-0.2794 0.4572 0 0.9144 0.0254 0.4826 0 0.9398 0.0508 2.0828 0.2794 3.2766 1.4224 1.1938 1.1176 1.8542 3.0734 0.2286 0.6604 0.2286 1.3462 0 1.0414-0.381 1.7526-0.3556 0.7112-0.9652 1.2192t-1.397 0.9144q-0.762 0.381-1.5494 0.762 0.1016 0.1016 0.1524 0.127 1.0668 0.6858 1.8796 1.7272 0.8128 1.016 0.8128 2.3622 0 1.143-0.6096 2.0828-0.5842 0.9398-1.524 1.6002-0.9144 0.6604-2.032 1.016-1.1176 0.381-2.1336 0.381-0.4826 0-0.9652-0.1778t-0.889-0.508q-0.381-0.3048-0.635-0.762-0.2286-0.4318-0.2286-0.9398 0-0.2286 0.0254-0.381 0.0508-0.1524 0.1524-0.3556 0.2794-0.6096 0.7874-1.1684 0.5334-0.5588 1.1684-1.016 0.635-0.4826 1.3208-0.8128 0.6858-0.3556 1.3208-0.5334 0.4064-0.127 0.7874-0.1524 0.4064-0.0254 0.8128-0.0254l0.3048 0.3302v0.127l0.2032 0.0508zm-6.4516-11.735h-0.1016q-0.4318 0.1524-0.9906 0.4064t-1.0922 0.5588q-0.5334 0.3048-0.9906 0.6858-0.4318 0.381-0.6096 0.8128 0.4826-0.4572 0.9144-0.7874t0.8636-0.6096q0.4572-0.2794 0.9144-0.5334 0.4826-0.254 1.0922-0.5334zm4.7498 8.1788q0.3556-0.0762 0.9398-0.3048t1.1684-0.5334q0.5842-0.3302 1.0668-0.6858 0.508-0.3556 0.7112-0.6604-0.9144 0.6604-1.8796 1.1938t-2.0066 0.9906zm-3.3782 7.0612q0.0508-0.0508 0.1016-0.1016 0.0508-0.0762 0.1016-0.127 0.4826-0.5588 1.016-1.016t1.1176-0.889l0.0254-0.0508q-0.3048 0.127-0.6858 0.381-0.3556 0.2286-0.7112 0.5334-0.3302 0.2794-0.6096 0.6096-0.254 0.3302-0.3556 0.6604zm6.1976-0.7874q-0.2794 0.254-0.5588 0.5334-0.2794 0.254-0.5588 0.508-0.2032 0.1778-0.4064 0.3302t-0.381 0.3556q0.381-0.0762 0.8128-0.4572 0.4318-0.4064 0.6858-0.6858 0.127-0.127 0.2032-0.2794t0.2032-0.3048zm-0.127-8.9662q-0.0508 0.0508-0.1016 0.0762-0.0254 0-0.0762 0.0254-0.254 0.127-0.4826 0.3048-0.2286 0.1524-0.4826 0.2794l-1.6764 0.889h0.1016q0.127 0 0.5334-0.2032 0.4318-0.2032 0.889-0.4572 0.4826-0.2794 0.8636-0.5334t0.4318-0.381zm-2.1082 1.8288 0.1016 0.0254q0.2286-0.0762 0.5588-0.2286 0.3556-0.1524 0.6858-0.3302 0.3556-0.1778 0.635-0.381 0.2794-0.2286 0.4318-0.4318-0.635 0.2794-1.1938 0.7366-0.5588 0.4318-1.2192 0.6096zm-6.8072-7.747v-0.0254q-0.1778 0.0508-0.4826 0.2286-0.2794 0.1524-0.6096 0.381-0.3048 0.2032-0.5842 0.4318-0.2794 0.2032-0.4318 0.3302zm2.54 14.351q0.3302-0.127 0.5842-0.4572t0.5588-0.5588q-0.3048 0.2032-0.6604 0.4826-0.3556 0.254-0.4826 0.5334zm4.1402 1.27q0.635-0.3048 1.1176-0.9652-0.5588 0.4572-1.1176 0.9652zm-2.8956-1.778-0.9144 0.8636q-0.0254 0.0254-0.0254 0.127l1.0414-0.9906zm-4.2926-13.03q-0.0762 0.0254-0.254 0.127-0.1778 0.1016-0.381 0.2286-0.1778 0.127-0.3556 0.254-0.1524 0.1016-0.1778 0.1778 0.2794-0.2032 0.5842-0.381 0.3048-0.2032 0.5842-0.4064zm7.8232 15.011q0.2032-0.1524 0.4318-0.3048t0.3556-0.4064zm-7.2136-15.9 0.0508 0.0508q0.2032-0.1524 0.3048-0.2032zm1.9558 10.541v0.0508l0.127-0.1778q-0.127 0.0762-0.127 0.127zm3.81-2.8956 0.0254 0.0508 0.127-0.1016q-0.1016 0-0.1524 0.0508zm1.1938 9.0678-0.1016 0.0762 0.0508 0.0508q0.0508-0.0508 0.0508-0.127zm-0.381-1.016q-0.0508 0-0.1016 0.0508l0.0254 0.0508zm-2.7178-2.4638h-0.0762q-0.0508 0.0254-0.0762 0.0508 0 0.0254-0.0254 0.0508 0.0508-0.0508 0.1778-0.1016zm-1.4986 1.2446 0.0254 0.0254 0.0254-0.0762zm2.1336-0.0508 0.0508-0.0508h-0.0254q0 0.0254-0.0254 0.0254 0 0 0 0.0254zm-2.794-14.021q0.0254-0.0254 0.0762-0.0254v-0.0254zm2.6416 14.122h-0.0254v0.0254zm3.5306 2.0574v-0.0254l-0.0254 0.0254zm0.4572-0.4064t0.0508-0.0508q-0.0508 0.0508-0.0508 0.0508zm-1.1684-0.2286q0.0508-0.0508 0.0508-0.0508t-0.0508 0.0508zm-7.747-14.122v-0.0254l-0.0254 0.0254zm9.1694 14.122h0.0254v-0.0254zm-0.7112-0.2032h-0.0254v0.0254zm-9.0678-14.224h0.0254v-0.0254zm4.7752 11.887q0.0254-0.0254 0.0254-0.0254-0.0254 0-0.0254 0.0254z" stroke-width=".26458"/>
  </g>
 </g>
</svg>
