<?xml version="1.0" encoding="UTF-8"?>
<svg width="48.679mm" height="19.863mm" version="1.1" viewBox="0 0 48.679196 19.862801" xmlns="http://www.w3.org/2000/svg">
 <g transform="translate(-6.5673 -4.9787)">
  <g stroke-width=".26458" aria-label="BabelBooks">
   <path d="m18.708 18.746 0.2286-0.0508 0.0254 0.1524 0.2032-0.1016q-0.1778 0.3556-0.8128 0.7112-0.6096 0.3302-1.397 0.7874-0.7874 0.4318-1.5748 1.0414-0.762 0.6096-1.2446 1.4732l0.0254 0.0508q0.2286-0.0508 0.4318-0.0762 0.2286-0.0254 0.4572-0.0762 0.6858-0.2032 1.4478-0.5842 0.762-0.4064 1.397-0.9652 0.6604-0.5588 1.0922-1.2446 0.4318-0.7112 0.4318-1.4986 0-0.5334-0.381-0.8636-0.3556-0.3302-0.8636-0.4826-0.508-0.1778-1.0922-0.2286-0.5588-0.0762-0.9398-0.0762-0.889 0-1.778 0.2286-0.8636 0.2286-1.6256 0.6858-0.0508 0.0254-0.1016 0.127-0.1524 0.508-0.2032 1.0668t-0.0508 1.0922q0 0.2032 0.0254 0.4064 0.0508 0.1778 0.0508 0.381 0 0.127-0.0254 0.2032t-0.1778 0.0762q-0.1778 0-0.3556-0.0508-0.1524-0.0508-0.3302-0.0762-0.5588-0.381-0.9398-0.8128t-0.381-1.1684q0-1.524 0.3556-2.9718 0.3556-1.4732 0.7112-2.9464 0.127-0.508 0.2286-0.9652 0.127-0.4826 0.3048-0.9652 0.1778-0.4572 0.381-0.889 0.2032-0.4572 0.4064-0.889-0.127-0.1778-0.254-0.3302-0.127-0.1778-0.254-0.3556 0-0.1778 0.1016-0.2032t0.2286-0.0254q0.3048 0 0.6096 0.2286 0.3302 0.2286 0.5842 0.5588 0.2794 0.3048 0.4572 0.6858 0.1778 0.3556 0.1778 0.635v0.4318q0 0.2794-0.0762 0.7112t-0.2032 0.889q-0.1016 0.4572-0.2286 0.889-0.1016 0.4064-0.2032 0.6858 0.1524 0.0508 0.3048 0.0762 0.1778 0.0254 0.3302 0.0254 0.5588 0 1.3462-0.254 0.8128-0.254 1.6256-0.6096 0.8382-0.381 1.5494-0.8128 0.7366-0.4572 1.1684-0.8382 0.4572-0.4064 0.7366-0.9652 0.3048-0.5588 0.3048-1.1684 0-0.508-0.254-0.9398t-0.635-0.762q-0.3048-0.254-0.8128-0.4318-0.4826-0.1778-1.016-0.2794t-1.0668-0.1524q-0.508-0.0508-0.9144-0.0508-1.651 0-3.2512 0.508-0.7366 0.2286-1.651 0.6858-0.889 0.4318-1.6764 1.0414-0.762 0.6096-1.2954 1.3716-0.5334 0.762-0.5334 1.651 0 0.0508 0.0508 0.2032 0.0762 0.1524 0.1778 0.3302 0.1016 0.1524 0.1778 0.3048t0.127 0.2286v0.254q-0.4318-0.0508-0.762-0.3048t-0.5588-0.6096q-0.2286-0.381-0.3556-0.7874-0.127-0.4318-0.127-0.8128 0-0.5588 0.1524-1.0414 0.1778-0.4826 0.4826-0.9652 0.5842-0.9144 1.4986-1.651 0.9398-0.7366 2.0066-1.2446 1.0922-0.5334 2.2606-0.7874 1.1684-0.2794 2.2352-0.2794 0.4572 0 0.9144 0.0254 0.4826 0 0.9398 0.0508 2.0828 0.2794 3.2766 1.4224 1.1938 1.1176 1.8542 3.0734 0.2286 0.6604 0.2286 1.3462 0 1.0414-0.381 1.7526-0.3556 0.7112-0.9652 1.2192t-1.397 0.9144q-0.762 0.381-1.5494 0.762 0.1016 0.1016 0.1524 0.127 1.0668 0.6858 1.8796 1.7272 0.8128 1.016 0.8128 2.3622 0 1.143-0.6096 2.0828-0.5842 0.9398-1.524 1.6002-0.9144 0.6604-2.032 1.016-1.1176 0.381-2.1336 0.381-0.4826 0-0.9652-0.1778t-0.889-0.508q-0.381-0.3048-0.635-0.762-0.2286-0.4318-0.2286-0.9398 0-0.2286 0.0254-0.381 0.0508-0.1524 0.1524-0.3556 0.2794-0.6096 0.7874-1.1684 0.5334-0.5588 1.1684-1.016 0.635-0.4826 1.3208-0.8128 0.6858-0.3556 1.3208-0.5334 0.4064-0.127 0.7874-0.1524 0.4064-0.0254 0.8128-0.0254l0.3048 0.3302v0.127l0.2032 0.0508zm-6.4516-11.735h-0.1016q-0.4318 0.1524-0.9906 0.4064t-1.0922 0.5588q-0.5334 0.3048-0.9906 0.6858-0.4318 0.381-0.6096 0.8128 0.4826-0.4572 0.9144-0.7874t0.8636-0.6096q0.4572-0.2794 0.9144-0.5334 0.4826-0.254 1.0922-0.5334zm4.7498 8.1788q0.3556-0.0762 0.9398-0.3048t1.1684-0.5334q0.5842-0.3302 1.0668-0.6858 0.508-0.3556 0.7112-0.6604-0.9144 0.6604-1.8796 1.1938t-2.0066 0.9906zm-3.3782 7.0612q0.0508-0.0508 0.1016-0.1016 0.0508-0.0762 0.1016-0.127 0.4826-0.5588 1.016-1.016t1.1176-0.889l0.0254-0.0508q-0.3048 0.127-0.6858 0.381-0.3556 0.2286-0.7112 0.5334-0.3302 0.2794-0.6096 0.6096-0.254 0.3302-0.3556 0.6604zm6.1976-0.7874q-0.2794 0.254-0.5588 0.5334-0.2794 0.254-0.5588 0.508-0.2032 0.1778-0.4064 0.3302t-0.381 0.3556q0.381-0.0762 0.8128-0.4572 0.4318-0.4064 0.6858-0.6858 0.127-0.127 0.2032-0.2794t0.2032-0.3048zm-0.127-8.9662q-0.0508 0.0508-0.1016 0.0762-0.0254 0-0.0762 0.0254-0.254 0.127-0.4826 0.3048-0.2286 0.1524-0.4826 0.2794l-1.6764 0.889h0.1016q0.127 0 0.5334-0.2032 0.4318-0.2032 0.889-0.4572 0.4826-0.2794 0.8636-0.5334t0.4318-0.381zm-2.1082 1.8288 0.1016 0.0254q0.2286-0.0762 0.5588-0.2286 0.3556-0.1524 0.6858-0.3302 0.3556-0.1778 0.635-0.381 0.2794-0.2286 0.4318-0.4318-0.635 0.2794-1.1938 0.7366-0.5588 0.4318-1.2192 0.6096zm-6.8072-7.747v-0.0254q-0.1778 0.0508-0.4826 0.2286-0.2794 0.1524-0.6096 0.381-0.3048 0.2032-0.5842 0.4318-0.2794 0.2032-0.4318 0.3302zm2.54 14.351q0.3302-0.127 0.5842-0.4572t0.5588-0.5588q-0.3048 0.2032-0.6604 0.4826-0.3556 0.254-0.4826 0.5334zm4.1402 1.27q0.635-0.3048 1.1176-0.9652-0.5588 0.4572-1.1176 0.9652zm-2.8956-1.778-0.9144 0.8636q-0.0254 0.0254-0.0254 0.127l1.0414-0.9906zm-4.2926-13.03q-0.0762 0.0254-0.254 0.127-0.1778 0.1016-0.381 0.2286-0.1778 0.127-0.3556 0.254-0.1524 0.1016-0.1778 0.1778 0.2794-0.2032 0.5842-0.381 0.3048-0.2032 0.5842-0.4064zm7.8232 15.011q0.2032-0.1524 0.4318-0.3048t0.3556-0.4064zm-7.2136-15.9 0.0508 0.0508q0.2032-0.1524 0.3048-0.2032zm1.9558 10.541v0.0508l0.127-0.1778q-0.127 0.0762-0.127 0.127zm3.81-2.8956 0.0254 0.0508 0.127-0.1016q-0.1016 0-0.1524 0.0508zm1.1938 9.0678-0.1016 0.0762 0.0508 0.0508q0.0508-0.0508 0.0508-0.127zm-0.381-1.016q-0.0508 0-0.1016 0.0508l0.0254 0.0508zm-2.7178-2.4638h-0.0762q-0.0508 0.0254-0.0762 0.0508 0 0.0254-0.0254 0.0508 0.0508-0.0508 0.1778-0.1016zm-1.4986 1.2446 0.0254 0.0254 0.0254-0.0762zm2.1336-0.0508 0.0508-0.0508h-0.0254q0 0.0254-0.0254 0.0254 0 0 0 0.0254zm-2.794-14.021q0.0254-0.0254 0.0762-0.0254v-0.0254zm2.6416 14.122h-0.0254v0.0254zm3.5306 2.0574v-0.0254l-0.0254 0.0254zm0.4572-0.4064t0.0508-0.0508q-0.0508 0.0508-0.0508 0.0508zm-1.1684-0.2286q0.0508-0.0508 0.0508-0.0508t-0.0508 0.0508zm-7.747-14.122v-0.0254l-0.0254 0.0254zm9.1694 14.122h0.0254v-0.0254zm-0.7112-0.2032h-0.0254v0.0254zm-9.0678-14.224h0.0254v-0.0254zm4.7752 11.887q0.0254-0.0254 0.0254-0.0254-0.0254 0-0.0254 0.0254z" stroke-width=".26458"/>
   <path d="m24.861 22.4q0.02481 0.05374 0.02481 0.07855 0 0.06201-0.09922 0.21911-0.12816 0.20671-0.28525 0.30179-0.09922 0.06201-0.27285 0.06201-0.29766 0-0.44648-0.1819-0.09095-0.10749-0.12816-0.38447l-0.46302 0.32246q-0.24391 0.14056-0.37207 0.17777-0.20671 0.05374-0.49609 0.05374-0.21084 0-0.33486-0.12402-0.11989-0.12816-0.11989-0.3266 0-0.28525 0.34726-0.68213 0.3514-0.39688 0.95085-0.64906 0.42168-0.17777 0.51676-0.22738 0.0083-0.13642 0.0083-0.29766 0-0.52503-0.14883-0.71107-0.14469-0.18604-0.41755-0.18604-0.28525 0-0.5333 0.22324-0.15296 0.14056-0.23151 0.52917-0.0248 0.10749-0.09508 0.23151-0.17777 0.11576-0.28525 0.11576-0.09095 0-0.16536-0.05374-0.04134-0.02894-0.04134-0.06615 0-0.10749 0.22738-0.48369 0.23151-0.38034 0.57878-0.56637 0.3514-0.19017 0.61185-0.19017 0.35553 0 0.52917 0.06615 0.17363 0.06201 0.30592 0.22324 0.13229 0.16123 0.16123 0.3514 0.01654 0.09095 0.01654 0.64906l-0.0124 0.65732 0.0041 0.47956q0 0.09509-0.0041 0.16123-0.0041 0.11989-0.0041 0.17777 0 0.13643 0.07855 0.21911 0.07855 0.08268 0.18604 0.08268 0.1571 0 0.26872-0.1571l0.04961-0.06615q0.02067-0.0124 0.09095-0.02894zm-1.2154-0.11989q0.02894-0.52503 0.02894-0.74001 0-0.11162-0.0124-0.30179-0.27698 0.09922-0.58704 0.30179-0.31006 0.20257-0.49196 0.46716-0.13229 0.19017-0.13229 0.35967 0 0.16123 0.10749 0.26872 0.11162 0.10749 0.27698 0.10749 0.12816 0 0.31006-0.09095 0.23978-0.11989 0.50023-0.37207z"/>
   <path d="m25.08 17.765v-0.02067q0-0.04134 0.03307-0.11576 0.45062-0.07855 0.95912-0.23978 0.02894-0.0041 0.09095-0.0041 0.02067 0.06615 0.02067 0.08682v1.232l-0.0041 0.39274 0.0041 0.43822-0.0083 0.35553q0 0.02067 0.0083 0.14056l0.339-0.12816q0.05374-0.01654 0.35553-0.10749 0.38447-0.06201 0.44648-0.06201 0.41341 0 0.74414 0.13229 0.20257 0.08268 0.40101 0.27699 0.19844 0.19017 0.29352 0.40514 0.16536 0.39274 0.16536 0.678 0 0.45062-0.05788 0.62425-0.14056 0.41341-0.34313 0.65319-0.20257 0.23978-0.56637 0.40928-0.3638 0.1695-0.77308 0.1695-0.3762 0-0.71107-0.14056t-0.3762-0.14056q-0.12816 0-0.3266 0.339l-0.11989-0.0041q-0.01654-0.27698-0.01654-0.68213l0.0083-0.61598-0.0041-0.31419 0.0083-0.90124-0.0083-0.17363 0.01654-0.42581v-0.3638l0.0041-0.14883q0-0.04547-0.0041-0.35967v-0.24805q0.0124-0.71934-0.06201-0.83096-0.11989-0.17777-0.51676-0.30592zm1.9637 5.0891q0.62839 0 0.95498-0.3514 0.33073-0.35553 0.33073-1.0542 0-0.64079-0.37207-1.0377-0.37207-0.39688-0.91777-0.39688-0.39688 0-0.66559 0.12816-0.16123 0.07855-0.1819 0.14469-0.01654 0.06615-0.01654 0.8847 0 0.97152 0.04134 1.1369 0.07028 0.25632 0.25632 0.36794 0.29352 0.17777 0.57051 0.17777z"/>
   <path d="m32.53 20.779-1.6578 0.0124h-0.31419q-0.19017 0-0.38861 0.01654-0.03721 0.12402-0.03721 0.1695l0.0041 0.04134v0.04134l-0.0041 0.20257q0 0.25218 0.1571 0.62012 0.16123 0.3638 0.45475 0.5581 0.29766 0.19017 0.74001 0.20257 0.23564-0.0124 0.3762-0.05788 0.14056-0.04547 0.39688-0.21084l0.29766-0.24391 0.0248 0.16536q0 0.02894-0.0041 0.06201-0.18604 0.23564-0.47129 0.41341t-0.57878 0.26045q-0.14056 0.03721-0.46302 0.03721-0.29352 0-0.57878-0.11989-0.42168-0.1819-0.66559-0.58291-0.23978-0.40514-0.23978-0.97978 0-0.1819 0.06615-0.46716 0.07028-0.28525 0.24805-0.60772 0.11989-0.21911 0.29352-0.35967 0.24805-0.19844 0.43408-0.27698 0.26872-0.11162 0.62425-0.11162 0.38447 0 0.62838 0.14056 0.33073 0.18604 0.49196 0.47956 0.16536 0.29352 0.16536 0.53744zm-2.3068-0.14883h0.1943q0.21084 0 1.2568-0.06615 0.16536-0.0083 0.20257-0.03307 0.07441-0.07855 0.07441-0.14056 0-0.12816-0.08268-0.28939-0.08268-0.16536-0.25632-0.25218-0.1695-0.09095-0.39688-0.09095-0.47956 0-0.76895 0.35967-0.22324 0.27285-0.22324 0.51263z"/>
   <path d="m32.993 17.84v-0.09095q0.11576-0.03721 0.25632-0.07855 0.20671-0.06615 0.61185-0.20257h0.1943q0.0041 0.19844 0.0041 0.22738 0 3.3941-0.02067 4.0473-0.0124 0.38447-0.0124 0.40928 0 0.46302 0.03721 0.51676 0.04961 0.07441 0.30179 0.10335 0.25632 0.02894 0.30179 0.05788 0.03307 0.01654 0.03307 0.05788 0 0.04547-0.02067 0.06614-0.01654 0.01654-0.06615 0.01654-0.02894 0-0.43408-0.0124l-0.54157-0.01654-0.69453 0.02894q-0.06615 0.0041-0.09922-0.02481-0.02481-0.02067-0.02481-0.05788 0-0.04134 0.02481-0.05788 0.02894-0.02067 0.29766-0.06615 0.27285-0.04547 0.31006-0.07441 0.04134-0.03307 0.05374-0.14056 0.01654-0.14883 0.01654-0.83922l-0.0041-0.95085 0.0124-0.98392-0.0041-0.98392 0.0124-0.48369q0-0.14469-0.04547-0.20671-0.04548-0.06615-0.1943-0.12816-0.22324-0.09095-0.30592-0.13229z"/>
   <path d="m34.824 17.84v-0.12816q0.07028-0.01654 0.11162-0.02067l0.38861-0.02067q0.48369-0.04134 1.0831-0.06615 0.23978-0.0083 0.75654-0.0083 0.7028 0 1.0294 0.10335 0.47542 0.15296 0.70693 0.46302 0.23564 0.30592 0.23564 0.68213 0 0.61185-0.8723 1.0294l-0.02067 0.03307q0.44648 0.11989 0.73174 0.33486t0.43822 0.52503q0.11162 0.22738 0.11162 0.59531 0 0.61598-0.56224 1.0997-0.5581 0.47956-1.542 0.47956h-0.61598l-0.62425 0.02067q-0.82682 0.0083-0.96738 0.0083-0.14469 0-0.28525-0.0124v-0.04548q0-0.04961 0.02067-0.07028 0.02481-0.0248 0.09508-0.04134 0.51676-0.10749 0.58291-0.14469 0.07028-0.04134 0.09509-0.12816 0.04961-0.16536 0.04961-0.85163 0-0.06201-0.0041-0.1571-0.0083-0.27699-0.0083-0.31833v-0.42995q0-1.0914-0.02481-1.9058l-0.0041-0.83096-0.0041-0.10335q-0.3514-0.04961-0.62012-0.06201-0.17363-0.0041-0.28112-0.02894zm1.6412 2.0919q0.20671 0.04134 0.43408 0.04134 0.89297 0 1.2113-0.39274t0.31833-0.78135q0-0.17363-0.05788-0.3514-0.05374-0.1819-0.19844-0.3266-0.14056-0.14469-0.3514-0.21497-0.35967-0.11989-0.73587-0.11989-0.3514 0-0.65319 0.07855-0.0041 0.08682-0.0041 0.12816 0 0.04134 0.0083 0.23564 0.0041 0.12402 0.0041 0.24805l-0.0124 0.50023 0.0041 0.29766 0.02894 0.58291zm0.97152 2.8112q0.40928-0.02894 0.68626-0.17363 0.12816-0.06615 0.30179-0.23564 0.17777-0.17363 0.27285-0.41341 0.09922-0.23978 0.09922-0.46302 0-0.1695-0.07028-0.41755-0.06615-0.24805-0.23151-0.43408-0.16123-0.19017-0.48369-0.31006-0.32246-0.12402-0.71107-0.12402-0.75241 0-0.84336 0.02894-0.0041 0.09508-0.0041 0.14056l0.0041 0.15296-0.0041 0.31006v0.3514q0.0124 0.97152 0.04547 1.1493 0.03307 0.17777 0.22324 0.30592 0.1943 0.12816 0.7152 0.13229z"/>
   <path d="m40.223 21.3q0-0.28112 0.11576-0.59945 0.11989-0.32246 0.35967-0.57464 0.23978-0.25632 0.5085-0.38034 0.3762-0.17363 0.91777-0.17363 0.77308 0 1.2898 0.52917 0.5209 0.52917 0.5209 1.2733 0 0.66146-0.5457 1.1824-0.54157 0.51676-1.3725 0.51676-0.51263 0-0.96738-0.26872-0.339-0.20257-0.58291-0.59945-0.24391-0.39688-0.24391-0.90537zm1.8273 1.6123q0.31419 0 0.60358-0.1695 0.29352-0.1695 0.46716-0.54157 0.17363-0.3762 0.17363-0.86816 0-0.32246-0.13643-0.74828-0.13229-0.42581-0.41341-0.63665-0.27698-0.21497-0.65319-0.21497-0.27285 0-0.5581 0.12816-0.28112 0.12816-0.47956 0.49196-0.1943 0.3638-0.1943 1.0335 0 0.75241 0.339 1.141 0.34313 0.38447 0.85163 0.38447z"/>
   <path d="m44.539 21.3q0-0.28112 0.11576-0.59945 0.11989-0.32246 0.35967-0.57464 0.23978-0.25632 0.5085-0.38034 0.3762-0.17363 0.91777-0.17363 0.77308 0 1.2898 0.52917 0.5209 0.52917 0.5209 1.2733 0 0.66146-0.5457 1.1824-0.54157 0.51676-1.3725 0.51676-0.51263 0-0.96738-0.26872-0.339-0.20257-0.58291-0.59945-0.24391-0.39688-0.24391-0.90537zm1.8273 1.6123q0.31419 0 0.60358-0.1695 0.29352-0.1695 0.46716-0.54157 0.17363-0.3762 0.17363-0.86816 0-0.32246-0.13643-0.74828-0.13229-0.42581-0.41341-0.63665-0.27699-0.21497-0.65319-0.21497-0.27285 0-0.5581 0.12816-0.28112 0.12816-0.47956 0.49196-0.1943 0.3638-0.1943 1.0335 0 0.75241 0.339 1.141 0.34313 0.38447 0.85163 0.38447z"/>
   <path d="m48.777 22.962-0.0083-0.11989q0.03307-0.0248 0.06201-0.02894 0.02894-0.0083 0.20671-0.02067 0.1819-0.0124 0.22738-0.07855 0.04548-0.07028 0.04548-0.56637l0.0083-1.633-0.0083-0.28939q0-0.03721 0.0083-0.27699 0.0083-0.11162 0.0083-0.26872l-0.01654-0.71934 0.0041-0.62838q0-0.22738-0.06615-0.28939-0.06201-0.06615-0.45062-0.11989v-0.04961q0-0.02481 0.0041-0.07028 0.23564-0.04961 0.41754-0.12402 0.09509-0.04134 0.48369-0.25632h0.12816q-0.0041 0.09508-0.0041 0.11576v0.35967l-0.0041 0.17777 0.0124 0.3266-0.0041 0.49196 0.0041 0.81856-0.0124 1.017v0.31419q0 0.05788 0.0041 0.16123l0.04547 0.0041q0.14056 0 0.28525-0.10335 0.64906-0.46302 0.81442-0.62838 0.16536-0.1695 0.16536-0.24391 0-0.04547-0.05374-0.11576-0.12402-0.06615-0.27699-0.09095-0.04548-0.0083-0.09922-0.02067-0.07441-0.02067-0.12402-0.02894l-0.0083-0.04134q0-0.02894 0.02067-0.08268 0.65319-0.02481 1.1369-0.02481 0.27285 0 0.58291 0.0124v0.05374q0 0.02894-0.02067 0.07441-0.06201 0.0124-0.1943 0.03721-0.25632 0.04134-0.38861 0.11576-0.31833 0.1695-0.65732 0.47542-0.20257 0.1819-0.3514 0.30592l-0.14883 0.12816q0.01654 0.02894 0.05374 0.07028 0.01654 0.01654 0.06615 0.07441 0.04961 0.05788 0.17777 0.1943 0.44648 0.47129 0.66146 0.7276 0.07028 0.08268 0.1571 0.1819 0.32246 0.35967 0.3762 0.40101 0.11576 0.07441 0.34313 0.11576 0.10749 0.02067 0.18604 0.03721 0.01654 0.04961 0.01654 0.07855l-0.0041 0.04134q-0.29352-0.0248-0.42168-0.0248h-0.07441l-1.1493 0.03307q-0.06615 0.0083-0.09095 0.0083-0.04134 0-0.08682-0.01654-0.0124-0.03307-0.0124-0.05788v-0.02894q0.0248-0.03721 0.04548-0.04547 0.40928-0.03307 0.47542-0.05374 0.03721-0.0083 0.07028-0.04547 0-0.07028-0.11989-0.22738-0.11989-0.1571-0.59945-0.6904-0.30592-0.339-0.39688-0.39274-0.08682-0.05788-0.24391-0.05788h-0.1571q-0.01654 0.14883-0.01654 0.68213 0 0.49609 0.08268 0.63665 0.04548 0.07855 0.21497 0.09922 0.1695 0.02067 0.21911 0.06201 0.03307 0.02481 0.04134 0.11576-0.24805-0.0041-0.41755-0.0041-0.27285 0-0.59531 0.0124-0.1943 0.0083-0.30592 0.0083-0.08268 0-0.27285-0.0041z"/>
   <path d="m53.122 21.912q0.15296 0.39274 0.23151 0.5085 0.1571 0.23564 0.3762 0.36794 0.21911 0.12816 0.47542 0.12816 0.23564 0 0.46716-0.20257 0.16536-0.15296 0.16536-0.35553 0-0.26872-0.1943-0.49609-0.1943-0.22324-0.74001-0.42581-0.54157-0.2067-0.7276-0.43822-0.18604-0.23151-0.18604-0.52917 0-0.28112 0.15296-0.49609t0.42168-0.32246q0.26872-0.11162 0.49609-0.11162 0.29352 0 0.52503 0.04547 0.23564 0.04547 0.40514 0.14056 0.03307 0.21084 0.05374 0.62012l0.0083 0.13229q-0.05374 0.0041-0.09095 0.0041h-0.05788q-0.12402-0.34313-0.38034-0.54157-0.25218-0.20257-0.50023-0.20257t-0.40101 0.15296q-0.15296 0.14883-0.15296 0.39274 0 0.18604 0.12402 0.33073 0.12402 0.14469 0.57878 0.33073 0.45889 0.18604 0.66559 0.34726 0.21084 0.1571 0.31006 0.38447 0.09922 0.22738 0.09922 0.43408 0 0.28525-0.19017 0.5333-0.18604 0.24805-0.47129 0.34726-0.28112 0.10335-0.50436 0.10335-0.52503 0-0.96738-0.1943-0.04134-0.03307-0.04547-0.12402 0-0.03721-0.0083-0.11989-0.06615-0.5581-0.06615-0.66146 0-0.04961 0.02067-0.06615t0.10749-0.01654z"/>
  </g>
 </g>
</svg>
